<svg width="208" height="208" viewBox="0 0 208 208" fill="none" xmlns="http://www.w3.org/2000/svg">
<g clip-path="url(#clip0_518_238)">
<rect width="208" height="208" rx="8" fill="url(#paint0_linear_518_238)"/>
<rect width="208" height="208" rx="8" fill="black" fill-opacity="0.2"/>
<path d="M22.7188 122.25V145H18.0312V122.25H22.7188ZM31.7812 131.969V135.625H21.4375V131.969H31.7812ZM32.875 122.25V125.922H21.4375V122.25H32.875ZM44.3288 140.953V128.094H48.8288V145H44.5944L44.3288 140.953ZM44.8288 137.484L46.1569 137.453C46.1569 138.578 46.0267 139.625 45.7663 140.594C45.5058 141.552 45.1152 142.385 44.5944 143.094C44.0735 143.792 43.4173 144.339 42.6256 144.734C41.834 145.12 40.9017 145.312 39.8288 145.312C39.0058 145.312 38.2454 145.198 37.5475 144.969C36.86 144.729 36.2663 144.359 35.7663 143.859C35.2767 143.349 34.8913 142.698 34.61 141.906C34.3392 141.104 34.2038 140.141 34.2038 139.016V128.094H38.7038V139.047C38.7038 139.547 38.761 139.969 38.8756 140.312C39.0006 140.656 39.1725 140.938 39.3913 141.156C39.61 141.375 39.8652 141.531 40.1569 141.625C40.459 141.719 40.7923 141.766 41.1569 141.766C42.084 141.766 42.8131 141.578 43.3444 141.203C43.886 140.828 44.2663 140.318 44.485 139.672C44.7142 139.016 44.8288 138.286 44.8288 137.484ZM56.0325 131.703V145H51.5325V128.094H55.7513L56.0325 131.703ZM55.3763 135.953H54.1575C54.1575 134.703 54.319 133.578 54.6419 132.578C54.9648 131.568 55.4179 130.708 56.0013 130C56.5846 129.281 57.2773 128.734 58.0794 128.359C58.8919 127.974 59.7981 127.781 60.7981 127.781C61.5898 127.781 62.3138 127.896 62.97 128.125C63.6263 128.354 64.1888 128.719 64.6575 129.219C65.1367 129.719 65.5013 130.38 65.7513 131.203C66.0117 132.026 66.1419 133.031 66.1419 134.219V145H61.6106V134.203C61.6106 133.453 61.5065 132.87 61.2981 132.453C61.0898 132.036 60.7825 131.745 60.3763 131.578C59.9804 131.401 59.4908 131.312 58.9075 131.312C58.3033 131.312 57.7773 131.432 57.3294 131.672C56.8919 131.911 56.5273 132.245 56.2356 132.672C55.9544 133.089 55.7408 133.578 55.595 134.141C55.4492 134.703 55.3763 135.307 55.3763 135.953ZM73.4238 120.984V145H68.9238V120.984H73.4238ZM84.08 128.094L76.7363 136.469L72.7988 140.453L71.1581 137.203L74.2831 133.234L78.6738 128.094H84.08ZM79.4081 145L74.4081 137.188L77.5175 134.469L84.5956 145H79.4081Z" fill="white"/>
<path opacity="0.6" d="M20.632 176H18.232V158.264H29.08V160.592H20.632V165.848H28V168.176H20.632V176ZM42.6777 169.328C42.6777 169.496 42.6537 169.88 42.6057 170.504H32.3577C32.7417 172.688 34.1817 174.176 36.8697 174.176C38.4057 174.176 40.1817 173.6 41.3577 172.736L42.3417 174.488C41.0697 175.472 38.9577 176.288 36.8217 176.288C31.9737 176.288 29.9577 172.856 29.9577 169.52C29.9577 167.576 30.5577 165.992 31.7577 164.72C32.9817 163.448 34.5417 162.824 36.4617 162.824C38.2857 162.824 39.7737 163.4 40.9257 164.576C42.1017 165.752 42.6777 167.336 42.6777 169.328ZM32.3577 168.512H40.3017C40.1817 166.28 38.5737 164.864 36.4617 164.864C34.3497 164.864 32.7417 166.376 32.3577 168.512ZM48.5176 176.288C46.5976 176.288 44.7256 175.352 43.7416 173.504L45.3976 172.232C46.1416 173.6 47.4136 174.272 48.5896 174.272C49.9576 174.272 50.8696 173.48 50.8696 172.496C50.8696 171.824 50.4856 171.272 49.6936 170.864C49.4296 170.72 48.8776 170.48 48.0856 170.144C47.2936 169.808 46.7656 169.568 46.5016 169.424C45.1816 168.704 44.5336 167.672 44.5336 166.304C44.5336 165.272 44.9176 164.408 45.6856 163.736C46.4536 163.04 47.4616 162.704 48.7336 162.704C50.3656 162.704 51.9496 163.4 52.8136 164.744L51.3496 166.136C50.6536 165.152 49.7416 164.648 48.5896 164.648C47.4376 164.648 46.7416 165.344 46.7416 166.208C46.7416 166.88 47.1016 167.384 47.8216 167.72L49.2376 168.344C50.0056 168.656 50.5816 168.92 50.9656 169.136C52.4296 169.88 53.1496 170.96 53.1496 172.376C53.1496 173.48 52.7176 174.416 51.8536 175.16C50.9896 175.904 49.8856 176.288 48.5176 176.288ZM62.7548 173.456L63.6188 175.232C62.6828 175.952 61.5548 176.312 60.1868 176.312C57.4748 176.312 56.0828 174.56 56.0828 171.488V165.104H53.8028V163.136H56.1068V158.576H58.3628V163.136H62.9228V165.104H58.3628V171.656C58.3628 173.36 59.0588 174.2 60.4508 174.2C61.1948 174.2 61.9628 173.96 62.7548 173.456ZM66.181 161.312C65.221 161.312 64.501 160.616 64.501 159.656C64.501 158.72 65.221 158.048 66.181 158.048C67.069 158.048 67.813 158.768 67.813 159.656C67.813 160.616 67.069 161.312 66.181 161.312ZM67.285 163.136V176H64.981V163.136H67.285ZM75.3998 172.76L79.2878 163.136H81.8318L76.1678 175.976H74.5598L68.8958 163.136H71.4638L75.3998 172.76ZM93.0642 165.008V163.136H95.2722V176H93.0642V174.176C91.9122 175.592 90.4002 176.312 88.5282 176.312C86.6802 176.312 85.1442 175.664 83.9202 174.344C82.6962 173.024 82.0962 171.416 82.0962 169.472C82.0962 167.552 82.6962 165.968 83.9202 164.72C85.1442 163.448 86.6802 162.824 88.5282 162.824C90.3522 162.824 91.8642 163.544 93.0642 165.008ZM93.2082 169.544C93.2082 168.272 92.8002 167.168 91.9842 166.28C91.1682 165.392 90.1122 164.936 88.7922 164.936C87.4722 164.936 86.4162 165.392 85.6242 166.28C84.8322 167.168 84.4242 168.272 84.4242 169.568C84.4242 170.864 84.8322 171.968 85.6242 172.856C86.4162 173.744 87.4722 174.2 88.7922 174.2C90.1122 174.2 91.1682 173.744 91.9842 172.856C92.8002 171.968 93.2082 170.864 93.2082 169.544ZM100.673 157.832V176H98.3691V157.832H100.673Z" fill="white"/>
<path d="M216.216 133.756C216.308 134.296 216.274 134.851 216.116 135.376L196.315 200.324C195.943 201.424 195.412 202.461 194.748 203.401C192.979 205.907 190.248 207.741 186.982 208.303C184.603 208.713 182.265 208.389 180.204 207.499C179.437 207.169 178.706 206.756 178.024 206.28C177.008 205.561 176.099 204.681 175.342 203.674L167.649 193.21C166.543 191.704 164.19 192.107 163.642 193.896L159.765 206.615C159.392 207.716 158.86 208.753 158.198 209.693C157.716 210.371 157.163 211.003 156.55 211.571C154.904 213.099 152.811 214.185 150.431 214.595C147.165 215.157 143.978 214.341 141.473 212.572C140.455 211.853 139.546 210.973 138.791 209.966L98.3262 154.947C98.1473 154.699 98.0071 154.417 97.9555 154.117L97.9548 154.113C97.6278 152.213 98.9004 150.406 100.804 150.078L114.565 147.71C116.944 147.3 119.282 147.624 121.346 148.513C122.114 148.843 122.843 149.256 123.524 149.737C124.541 150.454 125.45 151.332 126.205 152.339L141.148 172.659C142.259 174.167 144.614 173.761 145.155 171.97L147.154 165.346L135.135 149.005C133.689 147.032 134.817 144.224 137.229 143.808L151.118 141.418C152.232 141.226 153.338 141.195 154.411 141.309C156.479 141.527 158.424 142.278 160.076 143.443C161.094 144.16 162.001 145.038 162.757 146.045L177.701 166.365C178.807 167.873 181.164 167.468 181.707 165.676L183.357 160.221L188.998 141.53C189.624 139.528 190.767 137.722 192.298 136.3C193.946 134.771 196.041 133.685 198.421 133.275L212.181 130.907C214.083 130.579 215.889 131.857 216.216 133.756Z" fill="#FAFAFA" fill-opacity="0.1"/>
</g>
<defs>
<linearGradient id="paint0_linear_518_238" x1="136.205" y1="172.667" x2="25.6016" y2="-85.1302" gradientUnits="userSpaceOnUse">
<stop stop-color="#5E006C"/>
<stop offset="1" stop-color="#AF01CA"/>
</linearGradient>
<clipPath id="clip0_518_238">
<rect width="208" height="208" rx="8" fill="white"/>
</clipPath>
</defs>
</svg>
