<svg width="208" height="208" viewBox="0 0 208 208" fill="none" xmlns="http://www.w3.org/2000/svg">
<g clip-path="url(#clip0_518_165)">
<rect width="208" height="208" rx="8" fill="url(#paint0_linear_518_165)"/>
<rect width="208" height="208" rx="8" fill="black" fill-opacity="0.2"/>
<path d="M26.8906 136.891H21.0938V133.234H26.8906C27.7865 133.234 28.5156 133.089 29.0781 132.797C29.6406 132.495 30.0521 132.078 30.3125 131.547C30.5729 131.016 30.7031 130.417 30.7031 129.75C30.7031 129.073 30.5729 128.443 30.3125 127.859C30.0521 127.276 29.6406 126.807 29.0781 126.453C28.5156 126.099 27.7865 125.922 26.8906 125.922H22.7188V145H18.0312V122.25H26.8906C28.6719 122.25 30.1979 122.573 31.4688 123.219C32.75 123.854 33.7292 124.734 34.4062 125.859C35.0833 126.984 35.4219 128.271 35.4219 129.719C35.4219 131.188 35.0833 132.458 34.4062 133.531C33.7292 134.604 32.75 135.432 31.4688 136.016C30.1979 136.599 28.6719 136.891 26.8906 136.891ZM36.7975 136.719V136.391C36.7975 135.151 36.9746 134.01 37.3288 132.969C37.6829 131.917 38.1985 131.005 38.8756 130.234C39.5527 129.464 40.386 128.865 41.3756 128.438C42.3652 128 43.5006 127.781 44.7819 127.781C46.0631 127.781 47.2038 128 48.2038 128.438C49.2038 128.865 50.0423 129.464 50.7194 130.234C51.4069 131.005 51.9277 131.917 52.2819 132.969C52.636 134.01 52.8131 135.151 52.8131 136.391V136.719C52.8131 137.948 52.636 139.089 52.2819 140.141C51.9277 141.182 51.4069 142.094 50.7194 142.875C50.0423 143.646 49.209 144.245 48.2194 144.672C47.2298 145.099 46.0944 145.312 44.8131 145.312C43.5319 145.312 42.3913 145.099 41.3913 144.672C40.4017 144.245 39.5631 143.646 38.8756 142.875C38.1985 142.094 37.6829 141.182 37.3288 140.141C36.9746 139.089 36.7975 137.948 36.7975 136.719ZM41.2975 136.391V136.719C41.2975 137.427 41.36 138.089 41.485 138.703C41.61 139.318 41.8079 139.859 42.0788 140.328C42.36 140.786 42.7246 141.146 43.1725 141.406C43.6204 141.667 44.1673 141.797 44.8131 141.797C45.4381 141.797 45.9746 141.667 46.4225 141.406C46.8704 141.146 47.2298 140.786 47.5006 140.328C47.7715 139.859 47.9694 139.318 48.0944 138.703C48.2298 138.089 48.2975 137.427 48.2975 136.719V136.391C48.2975 135.703 48.2298 135.057 48.0944 134.453C47.9694 133.839 47.7663 133.297 47.485 132.828C47.2142 132.349 46.8548 131.974 46.4069 131.703C45.959 131.432 45.4173 131.297 44.7819 131.297C44.1465 131.297 43.6048 131.432 43.1569 131.703C42.7194 131.974 42.36 132.349 42.0788 132.828C41.8079 133.297 41.61 133.839 41.485 134.453C41.36 135.057 41.2975 135.703 41.2975 136.391ZM59.4388 131.344V151.5H54.9388V128.094H59.1106L59.4388 131.344ZM70.1419 136.359V136.688C70.1419 137.917 69.996 139.057 69.7044 140.109C69.4231 141.161 69.0065 142.078 68.4544 142.859C67.9023 143.63 67.2148 144.234 66.3919 144.672C65.5794 145.099 64.6419 145.312 63.5794 145.312C62.5481 145.312 61.6523 145.104 60.8919 144.688C60.1315 144.271 59.4908 143.688 58.97 142.938C58.4596 142.177 58.0481 141.297 57.7356 140.297C57.4231 139.297 57.1835 138.224 57.0169 137.078V136.219C57.1835 134.99 57.4231 133.865 57.7356 132.844C58.0481 131.812 58.4596 130.922 58.97 130.172C59.4908 129.411 60.1263 128.823 60.8763 128.406C61.6367 127.99 62.5273 127.781 63.5481 127.781C64.621 127.781 65.5638 127.984 66.3763 128.391C67.1992 128.797 67.8867 129.38 68.4388 130.141C69.0013 130.901 69.4231 131.807 69.7044 132.859C69.996 133.911 70.1419 135.078 70.1419 136.359ZM65.6263 136.688V136.359C65.6263 135.641 65.5638 134.979 65.4388 134.375C65.3242 133.76 65.1367 133.224 64.8763 132.766C64.6263 132.307 64.2929 131.953 63.8763 131.703C63.47 131.443 62.9752 131.312 62.3919 131.312C61.7773 131.312 61.2513 131.411 60.8138 131.609C60.3867 131.807 60.0377 132.094 59.7669 132.469C59.496 132.844 59.2929 133.292 59.1575 133.812C59.0221 134.333 58.9388 134.922 58.9075 135.578V137.75C58.9596 138.521 59.1054 139.214 59.345 139.828C59.5846 140.432 59.9544 140.911 60.4544 141.266C60.9544 141.62 61.6106 141.797 62.4231 141.797C63.0169 141.797 63.5169 141.667 63.9231 141.406C64.3294 141.135 64.6575 140.766 64.9075 140.297C65.1679 139.828 65.3502 139.286 65.4544 138.672C65.569 138.057 65.6263 137.396 65.6263 136.688Z" fill="white"/>
<path opacity="0.6" d="M20.632 176H18.232V158.264H29.08V160.592H20.632V165.848H28V168.176H20.632V176ZM42.6777 169.328C42.6777 169.496 42.6537 169.88 42.6057 170.504H32.3577C32.7417 172.688 34.1817 174.176 36.8697 174.176C38.4057 174.176 40.1817 173.6 41.3577 172.736L42.3417 174.488C41.0697 175.472 38.9577 176.288 36.8217 176.288C31.9737 176.288 29.9577 172.856 29.9577 169.52C29.9577 167.576 30.5577 165.992 31.7577 164.72C32.9817 163.448 34.5417 162.824 36.4617 162.824C38.2857 162.824 39.7737 163.4 40.9257 164.576C42.1017 165.752 42.6777 167.336 42.6777 169.328ZM32.3577 168.512H40.3017C40.1817 166.28 38.5737 164.864 36.4617 164.864C34.3497 164.864 32.7417 166.376 32.3577 168.512ZM48.5176 176.288C46.5976 176.288 44.7256 175.352 43.7416 173.504L45.3976 172.232C46.1416 173.6 47.4136 174.272 48.5896 174.272C49.9576 174.272 50.8696 173.48 50.8696 172.496C50.8696 171.824 50.4856 171.272 49.6936 170.864C49.4296 170.72 48.8776 170.48 48.0856 170.144C47.2936 169.808 46.7656 169.568 46.5016 169.424C45.1816 168.704 44.5336 167.672 44.5336 166.304C44.5336 165.272 44.9176 164.408 45.6856 163.736C46.4536 163.04 47.4616 162.704 48.7336 162.704C50.3656 162.704 51.9496 163.4 52.8136 164.744L51.3496 166.136C50.6536 165.152 49.7416 164.648 48.5896 164.648C47.4376 164.648 46.7416 165.344 46.7416 166.208C46.7416 166.88 47.1016 167.384 47.8216 167.72L49.2376 168.344C50.0056 168.656 50.5816 168.92 50.9656 169.136C52.4296 169.88 53.1496 170.96 53.1496 172.376C53.1496 173.48 52.7176 174.416 51.8536 175.16C50.9896 175.904 49.8856 176.288 48.5176 176.288ZM62.7548 173.456L63.6188 175.232C62.6828 175.952 61.5548 176.312 60.1868 176.312C57.4748 176.312 56.0828 174.56 56.0828 171.488V165.104H53.8028V163.136H56.1068V158.576H58.3628V163.136H62.9228V165.104H58.3628V171.656C58.3628 173.36 59.0588 174.2 60.4508 174.2C61.1948 174.2 61.9628 173.96 62.7548 173.456ZM66.181 161.312C65.221 161.312 64.501 160.616 64.501 159.656C64.501 158.72 65.221 158.048 66.181 158.048C67.069 158.048 67.813 158.768 67.813 159.656C67.813 160.616 67.069 161.312 66.181 161.312ZM67.285 163.136V176H64.981V163.136H67.285ZM75.3998 172.76L79.2878 163.136H81.8318L76.1678 175.976H74.5598L68.8958 163.136H71.4638L75.3998 172.76ZM93.0642 165.008V163.136H95.2722V176H93.0642V174.176C91.9122 175.592 90.4002 176.312 88.5282 176.312C86.6802 176.312 85.1442 175.664 83.9202 174.344C82.6962 173.024 82.0962 171.416 82.0962 169.472C82.0962 167.552 82.6962 165.968 83.9202 164.72C85.1442 163.448 86.6802 162.824 88.5282 162.824C90.3522 162.824 91.8642 163.544 93.0642 165.008ZM93.2082 169.544C93.2082 168.272 92.8002 167.168 91.9842 166.28C91.1682 165.392 90.1122 164.936 88.7922 164.936C87.4722 164.936 86.4162 165.392 85.6242 166.28C84.8322 167.168 84.4242 168.272 84.4242 169.568C84.4242 170.864 84.8322 171.968 85.6242 172.856C86.4162 173.744 87.4722 174.2 88.7922 174.2C90.1122 174.2 91.1682 173.744 91.9842 172.856C92.8002 171.968 93.2082 170.864 93.2082 169.544ZM100.673 157.832V176H98.3691V157.832H100.673Z" fill="white"/>
<path d="M216.888 133.756C216.981 134.296 216.947 134.851 216.788 135.376L196.988 200.324C196.616 201.424 196.085 202.461 195.421 203.401C193.652 205.907 190.921 207.741 187.655 208.303C185.275 208.713 182.938 208.389 180.877 207.499C180.11 207.169 179.379 206.756 178.696 206.28C177.681 205.561 176.771 204.681 176.015 203.674L168.322 193.21C167.215 191.704 164.862 192.107 164.315 193.896L160.437 206.615C160.065 207.716 159.532 208.753 158.871 209.693C158.389 210.371 157.836 211.003 157.223 211.571C155.576 213.099 153.484 214.185 151.104 214.595C147.838 215.157 144.651 214.341 142.146 212.572C141.128 211.853 140.219 210.973 139.464 209.966L98.999 154.947C98.8201 154.699 98.68 154.417 98.6284 154.117L98.6277 154.113C98.3006 152.213 99.5733 150.406 101.477 150.078L115.238 147.71C117.617 147.3 119.955 147.624 122.019 148.513C122.787 148.843 123.516 149.256 124.197 149.737C125.214 150.454 126.123 151.332 126.878 152.339L141.821 172.659C142.932 174.167 145.286 173.761 145.827 171.97L147.827 165.346L135.808 149.005C134.361 147.032 135.489 144.224 137.902 143.808L151.79 141.418C152.905 141.226 154.011 141.195 155.084 141.309C157.152 141.527 159.097 142.278 160.749 143.443C161.767 144.16 162.674 145.038 163.43 146.045L178.373 166.365C179.48 167.873 181.837 167.468 182.38 165.676L184.029 160.221L189.671 141.53C190.297 139.528 191.44 137.722 192.971 136.3C194.619 134.771 196.714 133.685 199.093 133.275L212.854 130.907C214.756 130.579 216.561 131.857 216.888 133.756Z" fill="#FAFAFA" fill-opacity="0.1"/>
</g>
<defs>
<linearGradient id="paint0_linear_518_165" x1="136.205" y1="172.667" x2="25.6016" y2="-85.1302" gradientUnits="userSpaceOnUse">
<stop stop-color="#016500"/>
<stop offset="1" stop-color="#06DE03"/>
</linearGradient>
<clipPath id="clip0_518_165">
<rect width="208" height="208" rx="8" fill="white"/>
</clipPath>
</defs>
</svg>
