<svg width="208" height="208" viewBox="0 0 208 208" fill="none" xmlns="http://www.w3.org/2000/svg">
<g clip-path="url(#clip0_518_156)">
<rect width="208" height="208" rx="8" fill="url(#paint0_linear_518_156)"/>
<rect width="208" height="208" rx="8" fill="black" fill-opacity="0.2"/>
<path d="M18.0312 122.25H26.5156C28.2552 122.25 29.75 122.51 31 123.031C32.2604 123.552 33.2292 124.323 33.9062 125.344C34.5833 126.365 34.9219 127.62 34.9219 129.109C34.9219 130.328 34.7135 131.375 34.2969 132.25C33.8906 133.115 33.3125 133.839 32.5625 134.422C31.8229 134.995 30.9531 135.453 29.9531 135.797L28.4688 136.578H21.0938L21.0625 132.922H26.5469C27.3698 132.922 28.0521 132.776 28.5938 132.484C29.1354 132.193 29.5417 131.786 29.8125 131.266C30.0938 130.745 30.2344 130.141 30.2344 129.453C30.2344 128.724 30.099 128.094 29.8281 127.562C29.5573 127.031 29.1458 126.625 28.5938 126.344C28.0417 126.062 27.349 125.922 26.5156 125.922H22.7188V145H18.0312V122.25ZM30.75 145L25.5625 134.859L30.5156 134.828L35.7656 144.781V145H30.75ZM36.8913 136.719V136.391C36.8913 135.151 37.0683 134.01 37.4225 132.969C37.7767 131.917 38.2923 131.005 38.9694 130.234C39.6465 129.464 40.4798 128.865 41.4694 128.438C42.459 128 43.5944 127.781 44.8756 127.781C46.1569 127.781 47.2975 128 48.2975 128.438C49.2975 128.865 50.136 129.464 50.8131 130.234C51.5006 131.005 52.0215 131.917 52.3756 132.969C52.7298 134.01 52.9069 135.151 52.9069 136.391V136.719C52.9069 137.948 52.7298 139.089 52.3756 140.141C52.0215 141.182 51.5006 142.094 50.8131 142.875C50.136 143.646 49.3027 144.245 48.3131 144.672C47.3235 145.099 46.1881 145.312 44.9069 145.312C43.6256 145.312 42.485 145.099 41.485 144.672C40.4954 144.245 39.6569 143.646 38.9694 142.875C38.2923 142.094 37.7767 141.182 37.4225 140.141C37.0683 139.089 36.8913 137.948 36.8913 136.719ZM41.3913 136.391V136.719C41.3913 137.427 41.4538 138.089 41.5788 138.703C41.7038 139.318 41.9017 139.859 42.1725 140.328C42.4538 140.786 42.8183 141.146 43.2663 141.406C43.7142 141.667 44.261 141.797 44.9069 141.797C45.5319 141.797 46.0683 141.667 46.5163 141.406C46.9642 141.146 47.3235 140.786 47.5944 140.328C47.8652 139.859 48.0631 139.318 48.1881 138.703C48.3235 138.089 48.3913 137.427 48.3913 136.719V136.391C48.3913 135.703 48.3235 135.057 48.1881 134.453C48.0631 133.839 47.86 133.297 47.5788 132.828C47.3079 132.349 46.9485 131.974 46.5006 131.703C46.0527 131.432 45.511 131.297 44.8756 131.297C44.2402 131.297 43.6985 131.432 43.2506 131.703C42.8131 131.974 42.4538 132.349 42.1725 132.828C41.9017 133.297 41.7038 133.839 41.5788 134.453C41.4538 135.057 41.3913 135.703 41.3913 136.391ZM62.0169 141.797C62.569 141.797 63.0585 141.693 63.4856 141.484C63.9127 141.266 64.246 140.964 64.4856 140.578C64.7356 140.182 64.8658 139.719 64.8763 139.188H69.1106C69.1002 140.375 68.7825 141.432 68.1575 142.359C67.5325 143.276 66.694 144 65.6419 144.531C64.5898 145.052 63.4127 145.312 62.1106 145.312C60.7981 145.312 59.6523 145.094 58.6731 144.656C57.7044 144.219 56.8971 143.615 56.2513 142.844C55.6054 142.062 55.121 141.156 54.7981 140.125C54.4752 139.083 54.3138 137.969 54.3138 136.781V136.328C54.3138 135.13 54.4752 134.016 54.7981 132.984C55.121 131.943 55.6054 131.036 56.2513 130.266C56.8971 129.484 57.7044 128.875 58.6731 128.438C59.6419 128 60.7773 127.781 62.0794 127.781C63.4648 127.781 64.6783 128.047 65.72 128.578C66.7721 129.109 67.595 129.87 68.1888 130.859C68.7929 131.839 69.1002 133 69.1106 134.344H64.8763C64.8658 133.781 64.746 133.271 64.5169 132.812C64.2981 132.354 63.9752 131.99 63.5481 131.719C63.1315 131.438 62.6158 131.297 62.0013 131.297C61.345 131.297 60.8085 131.438 60.3919 131.719C59.9752 131.99 59.6523 132.365 59.4231 132.844C59.194 133.312 59.0325 133.849 58.9388 134.453C58.8554 135.047 58.8138 135.672 58.8138 136.328V136.781C58.8138 137.438 58.8554 138.068 58.9388 138.672C59.0221 139.276 59.1783 139.812 59.4075 140.281C59.6471 140.75 59.9752 141.12 60.3919 141.391C60.8085 141.661 61.3502 141.797 62.0169 141.797ZM75.58 120.984V145H71.08V120.984H75.58ZM86.2363 128.094L78.8925 136.469L74.955 140.453L73.3144 137.203L76.4394 133.234L80.83 128.094H86.2363ZM81.5644 145L76.5644 137.188L79.6738 134.469L86.7519 145H81.5644Z" fill="white"/>
<path opacity="0.6" d="M20.632 176H18.232V158.264H29.08V160.592H20.632V165.848H28V168.176H20.632V176ZM42.6777 169.328C42.6777 169.496 42.6537 169.88 42.6057 170.504H32.3577C32.7417 172.688 34.1817 174.176 36.8697 174.176C38.4057 174.176 40.1817 173.6 41.3577 172.736L42.3417 174.488C41.0697 175.472 38.9577 176.288 36.8217 176.288C31.9737 176.288 29.9577 172.856 29.9577 169.52C29.9577 167.576 30.5577 165.992 31.7577 164.72C32.9817 163.448 34.5417 162.824 36.4617 162.824C38.2857 162.824 39.7737 163.4 40.9257 164.576C42.1017 165.752 42.6777 167.336 42.6777 169.328ZM32.3577 168.512H40.3017C40.1817 166.28 38.5737 164.864 36.4617 164.864C34.3497 164.864 32.7417 166.376 32.3577 168.512ZM48.5176 176.288C46.5976 176.288 44.7256 175.352 43.7416 173.504L45.3976 172.232C46.1416 173.6 47.4136 174.272 48.5896 174.272C49.9576 174.272 50.8696 173.48 50.8696 172.496C50.8696 171.824 50.4856 171.272 49.6936 170.864C49.4296 170.72 48.8776 170.48 48.0856 170.144C47.2936 169.808 46.7656 169.568 46.5016 169.424C45.1816 168.704 44.5336 167.672 44.5336 166.304C44.5336 165.272 44.9176 164.408 45.6856 163.736C46.4536 163.04 47.4616 162.704 48.7336 162.704C50.3656 162.704 51.9496 163.4 52.8136 164.744L51.3496 166.136C50.6536 165.152 49.7416 164.648 48.5896 164.648C47.4376 164.648 46.7416 165.344 46.7416 166.208C46.7416 166.88 47.1016 167.384 47.8216 167.72L49.2376 168.344C50.0056 168.656 50.5816 168.92 50.9656 169.136C52.4296 169.88 53.1496 170.96 53.1496 172.376C53.1496 173.48 52.7176 174.416 51.8536 175.16C50.9896 175.904 49.8856 176.288 48.5176 176.288ZM62.7548 173.456L63.6188 175.232C62.6828 175.952 61.5548 176.312 60.1868 176.312C57.4748 176.312 56.0828 174.56 56.0828 171.488V165.104H53.8028V163.136H56.1068V158.576H58.3628V163.136H62.9228V165.104H58.3628V171.656C58.3628 173.36 59.0588 174.2 60.4508 174.2C61.1948 174.2 61.9628 173.96 62.7548 173.456ZM66.181 161.312C65.221 161.312 64.501 160.616 64.501 159.656C64.501 158.72 65.221 158.048 66.181 158.048C67.069 158.048 67.813 158.768 67.813 159.656C67.813 160.616 67.069 161.312 66.181 161.312ZM67.285 163.136V176H64.981V163.136H67.285ZM75.3998 172.76L79.2878 163.136H81.8318L76.1678 175.976H74.5598L68.8958 163.136H71.4638L75.3998 172.76ZM93.0642 165.008V163.136H95.2722V176H93.0642V174.176C91.9122 175.592 90.4002 176.312 88.5282 176.312C86.6802 176.312 85.1442 175.664 83.9202 174.344C82.6962 173.024 82.0962 171.416 82.0962 169.472C82.0962 167.552 82.6962 165.968 83.9202 164.72C85.1442 163.448 86.6802 162.824 88.5282 162.824C90.3522 162.824 91.8642 163.544 93.0642 165.008ZM93.2082 169.544C93.2082 168.272 92.8002 167.168 91.9842 166.28C91.1682 165.392 90.1122 164.936 88.7922 164.936C87.4722 164.936 86.4162 165.392 85.6242 166.28C84.8322 167.168 84.4242 168.272 84.4242 169.568C84.4242 170.864 84.8322 171.968 85.6242 172.856C86.4162 173.744 87.4722 174.2 88.7922 174.2C90.1122 174.2 91.1682 173.744 91.9842 172.856C92.8002 171.968 93.2082 170.864 93.2082 169.544ZM100.673 157.832V176H98.3691V157.832H100.673Z" fill="white"/>
<path d="M216.561 133.756C216.654 134.296 216.62 134.851 216.461 135.376L196.661 200.324C196.289 201.424 195.758 202.461 195.094 203.401C193.324 205.907 190.594 207.741 187.328 208.303C184.948 208.713 182.611 208.389 180.55 207.499C179.782 207.169 179.052 206.756 178.369 206.28C177.354 205.561 176.444 204.681 175.688 203.674L167.995 193.21C166.888 191.704 164.535 192.107 163.987 193.896L160.11 206.615C159.738 207.716 159.205 208.753 158.543 209.693C158.062 210.371 157.509 211.003 156.896 211.571C155.249 213.099 153.156 214.185 150.777 214.595C147.511 215.157 144.324 214.341 141.818 212.572C140.801 211.853 139.891 210.973 139.137 209.966L98.6719 154.947C98.493 154.699 98.3528 154.417 98.3012 154.117L98.3005 154.113C97.9735 152.213 99.2461 150.406 101.15 150.078L114.91 147.71C117.29 147.3 119.628 147.624 121.692 148.513C122.46 148.843 123.189 149.256 123.87 149.737C124.887 150.454 125.796 151.332 126.55 152.339L141.494 172.659C142.605 174.167 144.959 173.761 145.5 171.97L147.5 165.346L135.481 149.005C134.034 147.032 135.162 144.224 137.575 143.808L151.463 141.418C152.578 141.226 153.683 141.195 154.757 141.309C156.825 141.527 158.77 142.278 160.422 143.443C161.44 144.16 162.346 145.038 163.103 146.045L178.046 166.365C179.153 167.873 181.51 167.468 182.053 165.676L183.702 160.221L189.344 141.53C189.97 139.528 191.113 137.722 192.644 136.3C194.292 134.771 196.387 133.685 198.766 133.275L212.527 130.907C214.429 130.579 216.234 131.857 216.561 133.756Z" fill="#FAFAFA" fill-opacity="0.1"/>
</g>
<defs>
<linearGradient id="paint0_linear_518_156" x1="136.205" y1="172.667" x2="25.6016" y2="-85.1302" gradientUnits="userSpaceOnUse">
<stop stop-color="#2433C0"/>
<stop offset="1" stop-color="#4F60FF"/>
</linearGradient>
<clipPath id="clip0_518_156">
<rect width="208" height="208" rx="8" fill="white"/>
</clipPath>
</defs>
</svg>
